<?xml version="1.0" encoding="UTF-8"?>
<svg version="1.1" viewBox="0 0 1024 805" width="1280" height="1280" xmlns="http://www.w3.org/2000/svg">
<path transform="translate(433)" d="m0 0h39l30 3 27 5 27 7 23 8 21 9 16 8 20 11 18 12 16 12 10 8 12 11 13 12 12 13 2 3 6-2 7-3 5-1h16l10 3 10 7 7 7 7 14 1 5v16l-4 12-11 24 8 20 8 22 7 26 5 25 3 26 1 16v27l-2 27-4 26-6 26-8 26-11 27-13 26-14 23-13 18-11 14-12 13-7 8-10 10-8 7-14 12-19 14-17 11-23 13-26 12-25 9-24 7-29 6-23 3-14 1h-39l-31-3-27-5-30-8-30-11-31-15-17-10-15-10-11-8-14-11-15-13-21-21-9-11-10-12-13-18-11-18-10-18-11-23-11-30-7-26-5-25-3-23-1-13v-41l3-30 5-27 8-30 10-27 11-24 9-17 15-24 13-17 8-10 13-15 20-20 11-9 12-10 18-13 20-12 16-9 26-12 25-9 24-7 29-6 25-3zm52 25 5 5 10 9 15 14 12 13 12 14 14 19 14 21 12 21 11 21 11 26 9 25 8 27 7 33 2 6 7 1 27 2 8 1v24l-2 28-1 8h67l1-60 1-1h22l1 61h25v-10l-3-28-5-26-7-25-7-20h-3l-10 21v2h-6l-19-39-9-20-10-23-2-6v-18l3-11-10-11-7-8-9-9-8-7-13-11-19-14-19-12-24-13-26-11-27-9-30-7-20-3zm-72 0-30 5-24 6-21 7-24 10-22 11-18 11-20 14-11 9-13 11-24 24-9 11-8 10-10 14-12 19-14 27-7 16-9 25-8 30-5 31-2 27h142l1-60 1-1 13-1 7-35 8-29 10-28 12-28 10-20 13-22 12-18 14-19 12-14 11-12 20-20 11-9 1-2zm28 8-13 11-11 9-22 22-9 11-10 12-13 18-12 19-9 16-8 15-11 25-10 28-7 24-6 26-5 32-2 21v21h113l1-60 1-1h21l1 1 1 60h12v-310zm22 0v310h38l1-16 4-17 5-9 6-7 12-7 14-4 13-2 13-1 37-1v-7l-7-30-8-27-10-27-13-28-12-22-12-19-10-14-10-13-12-14-9-10-16-16-8-7-15-12zm114 266-20 2-15 4-6 4-7 8-4 12-1 14h89v-11l-2-26-2-7zm53 2 1 19 1 22 1 1h11l2-15v-20l-3-5-5-2zm-507 62-1 2 2 26 5 30 6 24 8 24 11 26 12 23 12 19 10 14 11 14 11 12 7 8 10 10 8 7 13 11 19 14 21 13 27 14 27 11 26 8 22 5 27 4h3v-2l-11-9-5-4-18-18-7-8-8-9-11-14-13-18-12-19-12-22-14-29-10-26-8-25-3-9-9-6-7-8-4-11-2-11-1-13-1-58zm170 0-1 2 2 30 3 25 5 26 2 5 9 4 15 3 22 1 35-2 14-3 5-3 2-5v-83zm138 0-1 108-6 2-33 5-26 2h-33l-21-2 2 9 10 28 13 29 12 22 11 18 12 17 10 13 12 14 7 8 20 20 11 9 10 8h2v-310zm32 0v310l4-2 10-8 14-12 19-19 9-11 7-8 12-16 10-15 5-9-3-1-25-2-14-3-7-3-6-8-3-9 1-2 14 1 25 3 13 1h18l8-15 12-29 8-23v-5h-27l-61 1h-2v-19l3-40v-17l-4-24-2-16zm62 0 1 12 3 12 4 5 7 1h39l19-2 13-3 1-1 1-12v-12zm108 0-1 1v8h2l4-9zm29 0-7 16-6 10-9 9-10 6-3 17-5 28-1 8 31 3 11 3 6 4 5 7 4 13 1 11v10l-2 18-5 15-5 9-6 7-12 6-16 5-19 3-39 2-12 20-11 16-9 12-9 11-12 14-24 24-11 9-2 3h9l25-4 28-7 24-8 23-10 20-10 18-11 20-14 16-13 15-14 16-16 9-11 12-15 12-18 9-15 12-23 11-27 8-25 6-27 3-19 2-21v-11h-24l-1 1-1 113-1 1h-21l-1-1-1-114zm-55 47-17 2-44 2-12 1-4 4-2 11-1 22 3 5h71l5-22 3-18v-7zm8 69-3 8-8 24-10 24-6 13v2h15l19-2 16-4 8-6 4-5 4-12 1-7v-12l-3-12-4-6-8-4-9-1z" fill="#DEDEDE"/>
<path transform="translate(433)" d="m0 0h39l30 3 27 5 27 7 23 8 21 9 16 8 20 11 18 12 16 12 10 8 12 11 13 12 12 13 2 3 6-2 7-3 5-1h16l10 3 10 7 7 7 7 14 1 5v16l-4 12-11 24 8 20 8 22 7 26 5 25 3 26 1 16v27l-2 27-4 26-6 26-8 26-11 27-13 26-14 23-13 18-11 14-12 13-7 8-10 10-8 7-14 12-19 14-17 11-23 13-26 12-25 9-24 7-29 6-23 3-14 1h-39l-31-3-27-5-30-8-30-11-31-15-17-10-15-10-11-8-14-11-15-13-21-21-9-11-10-12-13-18-11-18-10-18-11-23-11-30-7-26-5-25-3-23-1-13v-41l3-30 5-27 8-30 10-27 11-24 9-17 15-24 13-17 8-10 13-15 20-20 11-9 12-10 18-13 20-12 16-9 26-12 25-9 24-7 29-6 25-3zm6 17-26 2-30 5-28 7-26 9-20 9-20 10-18 11-16 11-18 14-13 12-12 11-11 12-11 13-12 16-10 15-11 19-8 16-9 20-11 33-6 25-4 25-2 23v35l3 30 5 27 6 23 9 26 12 27 12 22 14 21 9 12 9 11 18 20 8 8 8 7 14 12 19 14 19 12 26 14 29 12 25 8 25 6 26 4 23 2h33l31-3 27-5 23-6 23-8 23-10 20-10 18-11 20-14 16-13 12-11 10-9 7-8 12-13 10-13 12-17 12-20 12-23 8-19 12-36 6-28 3-21 2-31v-13l-2-31-5-32-7-27-9-26-3-4-14 29v2h-6l-19-39-9-20-10-23-2-6v-18l4-12 2-4-14-15-5-6-8-7-14-13-13-10-17-12-20-12-23-12-26-11-29-9-27-6-31-4-15-1z" fill="#898989"/>
<path transform="translate(569,279)" d="m0 0h65l27 2 8 2 1 2v22l-2 28-1 7 66 1v-60l2-2h22l1 1 1 61-1 134-2 2h-21l-2-2v-114h-71l-3 10-7 13-9 10-8 6-4 2-3 17-5 28-2 8 24 1 16 3 8 5 6 8 4 13 1 11v10l-2 18-5 15-5 9-7 8-12 6-16 5-19 3-14 1h-50l-25-2-14-3-7-3-6-7-4-10 2-4 14 1 25 3 13 1h18l11-23 11-28 5-15 1-5-27 1-61 1-3-3v-17l3-40v-17l-4-24-2-21v-15l1-16 4-17 5-9 7-8 12-7 14-4 13-2zm8 20-20 2-15 4-6 4-7 8-4 12-1 14h89v-11l-2-26-2-7zm53 2 1 19 1 22 1 1h11l2-15v-20l-3-5-5-2zm-105 62 1 12 3 12 4 5 7 1h39l19-2 13-3 1-1 1-12v-12zm108 0-1 1v8h2l4-9zm-26 47-17 2-44 2-12 1-4 4-2 11-1 22 3 5h71l5-22 3-18v-7zm8 69-3 8-8 24-10 24-6 13v2h15l19-2 16-4 8-6 4-5 4-12 1-7v-12l-3-12-4-6-8-4-9-1z" fill="#243566"/>
<path transform="translate(266,281)" d="m0 0h20l3 3 1 124 1 17 3 13 4 6 1 3 14 7 15 3 22 1 35-2 14-3 4-2 2-5 1-163 2-2h21l2 2v188l-2 2-23 4-26 3-15 1h-33l-26-3-15-5-11-7-7-7-5-10-3-15-1-13v-138z" fill="#253567"/>
<path transform="translate(821,284)" d="m0 0 4 2 76 76 7-6 72-72 4 1 12 12-6 7-73 73 3 5 76 76-6 7-8 8-7-6-72-72-4 2-32 32-8 7-36 36-4-2-11-11 6-7 72-72-1-5-77-77 6-7z" fill="#058D05"/>
<path transform="translate(737,116)" d="m0 0h16l10 3 10 7 7 7 7 14 1 5v16l-4 12-11 24-12 26-13 27-6 1-8-15-11-23-18-40-4-11v-18l4-12 7-9 9-8 11-5z" fill="#CC3432"/>
<path transform="translate(735,281)" d="m0 0h22l1 1 1 61-1 134-2 2h-21l-2-2v-194z" fill="#233366"/>
<path transform="translate(610,300)" d="m0 0h17l3 1 2 19 1 22 10 1-1 9-4 11-5 1v9l-9 9-10 5h-2v-12l1-12h-88l-1-8v-12h89l-3-37z" fill="#DEDEDE"/>
<path transform="translate(916,379)" d="m0 0 7 6 73 73-6 7-8 8-7-6-73-73 6-7z" fill="#058D05"/>
<path transform="translate(887,379)" d="m0 0 4 2 10 9 2 1-2 4-34 34-8 7-36 36-4-2-11-11 6-7z" fill="#F76825"/>
<path transform="translate(821,284)" d="m0 0 4 2 77 77-6 7-7 7-4-2-77-77 6-7z" fill="#F76825"/>
<path transform="translate(594,478)" d="m0 0 21 1-6 21-8 21-11 25-2 4h-22l9-20 10-24 8-23z" fill="#DEDEDE"/>
<path transform="translate(666,343)" d="m0 0h67v20h-71z" fill="#DEDEDE"/>
<path transform="translate(740,141)" d="m0 0h9l8 4 4 5 2 5v10l-5 8-5 4-3 1h-11l-8-5-4-5-1-3v-11l5-8 6-4z" fill="#FBFBFB"/>
<path transform="translate(629,404)" d="m0 0 1 3-5 32-4 18h-20l1-8 5-26 2-13 16-4z" fill="#DEDEDE"/>
<path transform="translate(901,364)" d="m0 0 4 2 12 12-6 7-7 7-5-3-10-9-2-1v-2l8-7z" fill="#2B3665"/>
</svg>
